<svg width="128" height="128" viewBox="0 0 128 128" xmlns="http://www.w3.org/2000/svg">
    <rect width="100%" height="100%" fill="#4a7299"/>
    
        <defs>
          <linearGradient id="hull-gradient" x1="0%" y1="0%" x2="100%" y2="100%">
            <stop offset="0%" style="stop-color:#6699cc;stop-opacity:1" />
            <stop offset="50%" style="stop-color:#4a7299;stop-opacity:1" />
            <stop offset="100%" style="stop-color:#336688;stop-opacity:1" />
          </linearGradient>
        </defs>
        <rect width="100%" height="100%" fill="url(#hull-gradient)"/>
        <rect x="2" y="2" width="124" height="124" fill="none" stroke="#2a5577" stroke-width="2"/>
        <circle cx="8" cy="8" r="2" fill="#5588bb"/><circle cx="24" cy="8" r="2" fill="#5588bb"/><circle cx="40" cy="8" r="2" fill="#5588bb"/><circle cx="56" cy="8" r="2" fill="#5588bb"/><circle cx="72" cy="8" r="2" fill="#5588bb"/><circle cx="88" cy="8" r="2" fill="#5588bb"/><circle cx="104" cy="8" r="2" fill="#5588bb"/><circle cx="120" cy="8" r="2" fill="#5588bb"/><circle cx="8" cy="24" r="2" fill="#5588bb"/><circle cx="24" cy="24" r="2" fill="#5588bb"/><circle cx="40" cy="24" r="2" fill="#5588bb"/><circle cx="56" cy="24" r="2" fill="#5588bb"/><circle cx="72" cy="24" r="2" fill="#5588bb"/><circle cx="88" cy="24" r="2" fill="#5588bb"/><circle cx="104" cy="24" r="2" fill="#5588bb"/><circle cx="120" cy="24" r="2" fill="#5588bb"/><circle cx="8" cy="40" r="2" fill="#5588bb"/><circle cx="24" cy="40" r="2" fill="#5588bb"/><circle cx="40" cy="40" r="2" fill="#5588bb"/><circle cx="56" cy="40" r="2" fill="#5588bb"/><circle cx="72" cy="40" r="2" fill="#5588bb"/><circle cx="88" cy="40" r="2" fill="#5588bb"/><circle cx="104" cy="40" r="2" fill="#5588bb"/><circle cx="120" cy="40" r="2" fill="#5588bb"/><circle cx="8" cy="56" r="2" fill="#5588bb"/><circle cx="24" cy="56" r="2" fill="#5588bb"/><circle cx="40" cy="56" r="2" fill="#5588bb"/><circle cx="56" cy="56" r="2" fill="#5588bb"/><circle cx="72" cy="56" r="2" fill="#5588bb"/><circle cx="88" cy="56" r="2" fill="#5588bb"/><circle cx="104" cy="56" r="2" fill="#5588bb"/><circle cx="120" cy="56" r="2" fill="#5588bb"/><circle cx="8" cy="72" r="2" fill="#5588bb"/><circle cx="24" cy="72" r="2" fill="#5588bb"/><circle cx="40" cy="72" r="2" fill="#5588bb"/><circle cx="56" cy="72" r="2" fill="#5588bb"/><circle cx="72" cy="72" r="2" fill="#5588bb"/><circle cx="88" cy="72" r="2" fill="#5588bb"/><circle cx="104" cy="72" r="2" fill="#5588bb"/><circle cx="120" cy="72" r="2" fill="#5588bb"/><circle cx="8" cy="88" r="2" fill="#5588bb"/><circle cx="24" cy="88" r="2" fill="#5588bb"/><circle cx="40" cy="88" r="2" fill="#5588bb"/><circle cx="56" cy="88" r="2" fill="#5588bb"/><circle cx="72" cy="88" r="2" fill="#5588bb"/><circle cx="88" cy="88" r="2" fill="#5588bb"/><circle cx="104" cy="88" r="2" fill="#5588bb"/><circle cx="120" cy="88" r="2" fill="#5588bb"/><circle cx="8" cy="104" r="2" fill="#5588bb"/><circle cx="24" cy="104" r="2" fill="#5588bb"/><circle cx="40" cy="104" r="2" fill="#5588bb"/><circle cx="56" cy="104" r="2" fill="#5588bb"/><circle cx="72" cy="104" r="2" fill="#5588bb"/><circle cx="88" cy="104" r="2" fill="#5588bb"/><circle cx="104" cy="104" r="2" fill="#5588bb"/><circle cx="120" cy="104" r="2" fill="#5588bb"/><circle cx="8" cy="120" r="2" fill="#5588bb"/><circle cx="24" cy="120" r="2" fill="#5588bb"/><circle cx="40" cy="120" r="2" fill="#5588bb"/><circle cx="56" cy="120" r="2" fill="#5588bb"/><circle cx="72" cy="120" r="2" fill="#5588bb"/><circle cx="88" cy="120" r="2" fill="#5588bb"/><circle cx="104" cy="120" r="2" fill="#5588bb"/><circle cx="120" cy="120" r="2" fill="#5588bb"/>
      
  </svg>